<svg width="110" height="33" viewBox="0 0 110 33" fill="none" xmlns="http://www.w3.org/2000/svg">
<mask id="path-1-inside-1_20_2734" fill="white">
<path d="M0 0H110V33H0V0Z"/>
</mask>
<path d="M110 31.5H0V34.5H110V31.5Z" fill="#F4F4F4" mask="url(#path-1-inside-1_20_2734)"/>
<path d="M6.43359 19.1758C5.32031 19.1758 4.32715 18.9033 3.4541 18.3584C2.58105 17.8135 1.89551 17.04 1.39746 16.0381C0.899414 15.0303 0.650391 13.8379 0.650391 12.4609C0.650391 11.0781 0.899414 9.88281 1.39746 8.875C1.89551 7.86719 2.58105 7.09082 3.4541 6.5459C4.32715 6.00098 5.32031 5.72852 6.43359 5.72852C7.08984 5.72852 7.70801 5.8252 8.28809 6.01855C8.87402 6.21191 9.40137 6.49316 9.87012 6.8623C10.3389 7.22559 10.7285 7.67383 11.0391 8.20703C11.3555 8.73438 11.5723 9.33203 11.6895 10H10.1074C10.0137 9.54297 9.84961 9.1416 9.61523 8.7959C9.38672 8.4502 9.10547 8.16016 8.77148 7.92578C8.44336 7.68555 8.08008 7.50684 7.68164 7.38965C7.2832 7.2666 6.86719 7.20508 6.43359 7.20508C5.64258 7.20508 4.9248 7.40723 4.28027 7.81152C3.63574 8.20996 3.12305 8.80176 2.74219 9.58691C2.36719 10.3662 2.17969 11.3242 2.17969 12.4609C2.17969 13.5918 2.36719 14.5469 2.74219 15.3262C3.12305 16.1055 3.63574 16.6973 4.28027 17.1016C4.9248 17.5 5.64258 17.6992 6.43359 17.6992C6.86719 17.6992 7.2832 17.6406 7.68164 17.5234C8.08008 17.4004 8.44336 17.2217 8.77148 16.9873C9.10547 16.7471 9.38672 16.4541 9.61523 16.1084C9.84961 15.7627 10.0137 15.3613 10.1074 14.9043H11.6895C11.5723 15.5781 11.3555 16.1787 11.0391 16.7061C10.7285 17.2334 10.3389 17.6816 9.87012 18.0508C9.40137 18.4141 8.87402 18.6924 8.28809 18.8857C7.70801 19.0791 7.08984 19.1758 6.43359 19.1758ZM17.1914 19.2109C16.3066 19.2109 15.5303 19 14.8623 18.5781C14.1943 18.1562 13.6729 17.5645 13.2979 16.8027C12.9287 16.041 12.7441 15.1562 12.7441 14.1484C12.7441 13.123 12.9287 12.2295 13.2979 11.4678C13.6729 10.7002 14.1943 10.1055 14.8623 9.68359C15.5303 9.26172 16.3066 9.05078 17.1914 9.05078C18.082 9.05078 18.8613 9.26172 19.5293 9.68359C20.1973 10.1055 20.7188 10.7002 21.0938 11.4678C21.4688 12.2295 21.6562 13.123 21.6562 14.1484C21.6562 15.1562 21.4688 16.041 21.0938 16.8027C20.7188 17.5645 20.1973 18.1562 19.5293 18.5781C18.8613 19 18.082 19.2109 17.1914 19.2109ZM17.1914 17.8574C17.8711 17.8574 18.4277 17.6846 18.8613 17.3389C19.2949 16.9932 19.6172 16.5391 19.8281 15.9766C20.0391 15.4082 20.1445 14.7988 20.1445 14.1484C20.1445 13.4863 20.0391 12.8711 19.8281 12.3027C19.6172 11.7344 19.2949 11.2773 18.8613 10.9316C18.4277 10.5801 17.8711 10.4043 17.1914 10.4043C16.5234 10.4043 15.9727 10.5801 15.5391 10.9316C15.1055 11.2773 14.7832 11.7344 14.5723 12.3027C14.3613 12.8711 14.2559 13.4863 14.2559 14.1484C14.2559 14.7988 14.3613 15.4082 14.5723 15.9766C14.7832 16.5391 15.1055 16.9932 15.5391 17.3389C15.9727 17.6846 16.5234 17.8574 17.1914 17.8574ZM24.6094 13.0938V19H23.1152V9.17383H24.5566V10.7207H24.6973C24.9258 10.2168 25.2744 9.8125 25.7432 9.50781C26.2119 9.20312 26.8184 9.05078 27.5625 9.05078C28.2246 9.05078 28.8047 9.18555 29.3027 9.45508C29.8008 9.72461 30.1875 10.1348 30.4629 10.6855C30.7441 11.2305 30.8848 11.9219 30.8848 12.7598V19H29.3906V12.8652C29.3906 12.0977 29.1885 11.4971 28.7842 11.0635C28.3799 10.624 27.8291 10.4043 27.1318 10.4043C26.6514 10.4043 26.2207 10.5098 25.8398 10.7207C25.459 10.9316 25.1572 11.2363 24.9346 11.6348C24.7178 12.0332 24.6094 12.5195 24.6094 13.0938ZM37.0723 9.17383V10.457H31.9922V9.17383H37.0723ZM33.4688 6.83594H34.9629V16.1875C34.9629 16.6973 35.0684 17.0723 35.2793 17.3125C35.4902 17.5469 35.8242 17.6641 36.2812 17.6641C36.3809 17.6641 36.4834 17.6582 36.5889 17.6465C36.7002 17.6348 36.8203 17.6172 36.9492 17.5938L37.2656 18.9473C37.125 19 36.9521 19.041 36.7471 19.0703C36.5479 19.1055 36.3457 19.123 36.1406 19.123C35.3496 19.123 34.7051 18.8887 34.207 18.4199C33.7148 17.9512 33.4688 17.3418 33.4688 16.5918V6.83594ZM41.3965 19.2285C40.7754 19.2285 40.21 19.1113 39.7002 18.877C39.1904 18.6367 38.7861 18.291 38.4873 17.8398C38.1885 17.3887 38.0391 16.8438 38.0391 16.2051C38.0391 15.6426 38.1504 15.1885 38.373 14.8428C38.5957 14.4912 38.8916 14.2158 39.2607 14.0166C39.6357 13.8115 40.0459 13.6592 40.4912 13.5596C40.9424 13.46 41.3965 13.3809 41.8535 13.3223C42.4512 13.2461 42.9346 13.1875 43.3037 13.1465C43.6787 13.1055 43.9512 13.0352 44.1211 12.9355C44.2969 12.8359 44.3848 12.666 44.3848 12.4258V12.373C44.3848 11.7461 44.2119 11.2598 43.8662 10.9141C43.5264 10.5625 43.0078 10.3867 42.3105 10.3867C41.5957 10.3867 41.0332 10.5449 40.623 10.8613C40.2129 11.1719 39.9258 11.5059 39.7617 11.8633L38.3203 11.3535C38.5781 10.7559 38.9209 10.29 39.3486 9.95605C39.7822 9.62207 40.251 9.3877 40.7549 9.25293C41.2646 9.11816 41.7656 9.05078 42.2578 9.05078C42.5742 9.05078 42.9375 9.08887 43.3477 9.16504C43.7578 9.23535 44.1562 9.3877 44.543 9.62207C44.9355 9.85059 45.2578 10.1992 45.5098 10.668C45.7676 11.1309 45.8965 11.752 45.8965 12.5312V19H44.3848V17.6641H44.3145C44.2148 17.875 44.0449 18.1035 43.8047 18.3496C43.5645 18.5898 43.2451 18.7979 42.8467 18.9736C42.4541 19.1436 41.9707 19.2285 41.3965 19.2285ZM41.625 17.875C42.2227 17.875 42.7266 17.7578 43.1367 17.5234C43.5469 17.2891 43.8574 16.9873 44.0684 16.6182C44.2793 16.2432 44.3848 15.8535 44.3848 15.4492V14.0605C44.3203 14.1367 44.1797 14.207 43.9629 14.2715C43.752 14.3301 43.5059 14.3828 43.2246 14.4297C42.9492 14.4766 42.6797 14.5176 42.416 14.5527C42.1523 14.582 41.9414 14.6055 41.7832 14.623C41.3906 14.6758 41.0244 14.7607 40.6846 14.8779C40.3447 14.9893 40.0693 15.1562 39.8584 15.3789C39.6533 15.6016 39.5508 15.9062 39.5508 16.293C39.5508 16.8145 39.7441 17.21 40.1309 17.4795C40.5234 17.7432 41.0215 17.875 41.625 17.875ZM51.8027 19.2109C50.8887 19.2109 50.0977 18.9941 49.4297 18.5605C48.7676 18.1211 48.2549 17.5205 47.8916 16.7588C47.5342 15.9971 47.3555 15.127 47.3555 14.1484C47.3555 13.1465 47.54 12.2646 47.9092 11.5029C48.2783 10.7354 48.7939 10.1348 49.4561 9.70117C50.124 9.26758 50.9004 9.05078 51.7852 9.05078C52.4766 9.05078 53.0977 9.17969 53.6484 9.4375C54.2051 9.68945 54.6592 10.0469 55.0107 10.5098C55.3682 10.9727 55.5879 11.5117 55.6699 12.127H54.1582C54.082 11.8281 53.9443 11.5469 53.7451 11.2832C53.5459 11.0195 53.2822 10.8086 52.9541 10.6504C52.6318 10.4863 52.248 10.4043 51.8027 10.4043C51.2168 10.4043 50.7041 10.5566 50.2646 10.8613C49.8252 11.166 49.4824 11.5967 49.2363 12.1533C48.9902 12.7041 48.8672 13.3516 48.8672 14.0957C48.8672 14.8516 48.9873 15.5137 49.2275 16.082C49.4678 16.6445 49.8076 17.0811 50.2471 17.3916C50.6924 17.7021 51.2109 17.8574 51.8027 17.8574C52.3945 17.8574 52.9014 17.7051 53.3232 17.4004C53.7451 17.0898 54.0234 16.668 54.1582 16.1348H55.6699C55.5879 16.7148 55.377 17.2363 55.0371 17.6992C54.7031 18.1621 54.2607 18.5312 53.71 18.8066C53.165 19.0762 52.5293 19.2109 51.8027 19.2109ZM61.3477 9.17383V10.457H56.2676V9.17383H61.3477ZM57.7441 6.83594H59.2383V16.1875C59.2383 16.6973 59.3438 17.0723 59.5547 17.3125C59.7656 17.5469 60.0996 17.6641 60.5566 17.6641C60.6562 17.6641 60.7588 17.6582 60.8643 17.6465C60.9756 17.6348 61.0957 17.6172 61.2246 17.5938L61.541 18.9473C61.4004 19 61.2275 19.041 61.0225 19.0703C60.8232 19.1055 60.6211 19.123 60.416 19.123C59.625 19.123 58.9805 18.8887 58.4824 18.4199C57.9902 17.9512 57.7441 17.3418 57.7441 16.5918V6.83594ZM73.1953 14.9922V9.17383H74.6895V19H73.1953V17.3301H73.0898C72.8555 17.8281 72.4951 18.2529 72.0088 18.6045C71.5283 18.9561 70.916 19.1289 70.1719 19.123C69.5566 19.123 69.0117 18.9912 68.5371 18.7275C68.0625 18.458 67.6875 18.0479 67.4121 17.4971C67.1426 16.9463 67.0078 16.252 67.0078 15.4141V9.17383H68.502V15.3262C68.502 16.0352 68.7041 16.6035 69.1084 17.0312C69.5186 17.459 70.0371 17.6699 70.6641 17.6641C71.0391 17.6641 71.4199 17.5703 71.8066 17.3828C72.1992 17.1895 72.5273 16.8965 72.791 16.5039C73.0605 16.1055 73.1953 15.6016 73.1953 14.9922ZM83.5664 11.3887L82.2129 11.7578C82.084 11.4238 81.8613 11.1074 81.5449 10.8086C81.2344 10.5039 80.748 10.3516 80.0859 10.3516C79.4883 10.3516 78.9902 10.4922 78.5918 10.7734C78.1934 11.0488 77.9941 11.3945 77.9941 11.8105C77.9941 12.1855 78.1289 12.4844 78.3984 12.707C78.6738 12.9297 79.1016 13.1113 79.6816 13.252L81.1406 13.6035C82.0137 13.8145 82.6641 14.1396 83.0918 14.5791C83.5254 15.0186 83.7422 15.5781 83.7422 16.2578C83.7422 16.8203 83.5811 17.3242 83.2588 17.7695C82.9365 18.2148 82.4883 18.5664 81.9141 18.8242C81.3398 19.082 80.6719 19.2109 79.9102 19.2109C78.9082 19.2109 78.0791 18.9912 77.4229 18.5518C76.7725 18.1123 76.3594 17.4766 76.1836 16.6445L77.6074 16.293C77.7422 16.8203 78 17.2158 78.3809 17.4795C78.7676 17.7432 79.2715 17.875 79.8926 17.875C80.5898 17.875 81.1465 17.7256 81.5625 17.4268C81.9844 17.1221 82.1953 16.7617 82.1953 16.3457C82.1953 15.6543 81.709 15.1914 80.7363 14.957L79.1016 14.5703C78.1992 14.3535 77.5371 14.0225 77.1152 13.5771C76.6934 13.1318 76.4824 12.5723 76.4824 11.8984C76.4824 11.3418 76.6377 10.8496 76.9482 10.4219C77.2646 9.99414 77.6953 9.66016 78.2402 9.41992C78.7852 9.17383 79.4004 9.05078 80.0859 9.05078C81.0645 9.05078 81.8291 9.26758 82.3799 9.70117C82.9365 10.1289 83.332 10.6914 83.5664 11.3887Z" fill="#212529"/>
<path d="M102.264 19L101.279 18.0332L105.322 13.9727H94.8281V12.5664H105.322L101.279 8.52344L102.264 7.53906L107.977 13.2695L102.264 19Z" fill="#212529"/>
</svg>
