<svg width="162" height="33" viewBox="0 0 162 33" fill="none" xmlns="http://www.w3.org/2000/svg">
<mask id="path-1-inside-1_7_2683" fill="white">
<path d="M0 0H162V33H0V0Z"/>
</mask>
<path d="M162 31.5H0V34.5H162V31.5Z" fill="#F4F4F4" mask="url(#path-1-inside-1_7_2683)"/>
<path d="M1.70508 5.9043L5.58984 16.9258H5.74805L9.63281 5.9043H11.2852L6.48633 19H4.85156L0.0351562 5.9043H1.70508ZM12.2871 19V9.17383H13.7812V19H12.2871ZM13.043 7.53906C12.75 7.53906 12.498 7.43945 12.2871 7.24023C12.0762 7.04102 11.9707 6.80078 11.9707 6.51953C11.9707 6.23828 12.0762 5.99805 12.2871 5.79883C12.498 5.59961 12.75 5.5 13.043 5.5C13.3359 5.5 13.5879 5.59961 13.7988 5.79883C14.0098 5.99805 14.1152 6.23828 14.1152 6.51953C14.1152 6.80078 14.0098 7.04102 13.7988 7.24023C13.5879 7.43945 13.3359 7.53906 13.043 7.53906ZM19.8281 19.2109C18.8848 19.2109 18.0674 19 17.376 18.5781C16.6904 18.1562 16.1631 17.5674 15.7939 16.8115C15.4248 16.0498 15.2402 15.168 15.2402 14.166C15.2402 13.1582 15.4219 12.2705 15.7852 11.5029C16.1484 10.7354 16.6582 10.1348 17.3145 9.70117C17.9766 9.26758 18.75 9.05078 19.6348 9.05078C20.1445 9.05078 20.6514 9.13574 21.1553 9.30566C21.6592 9.47559 22.1162 9.75098 22.5264 10.1318C22.9424 10.5127 23.2734 11.0166 23.5195 11.6436C23.7656 12.2705 23.8887 13.041 23.8887 13.9551V14.6055H16.3125V13.3047H23.0713L22.377 13.7969C22.377 13.1406 22.2744 12.5576 22.0693 12.0479C21.8643 11.5381 21.5566 11.1367 21.1465 10.8438C20.7422 10.5508 20.2383 10.4043 19.6348 10.4043C19.0312 10.4043 18.5127 10.5537 18.0791 10.8525C17.6514 11.1455 17.3232 11.5293 17.0947 12.0039C16.8662 12.4785 16.752 12.9883 16.752 13.5332V14.3945C16.752 15.1387 16.8809 15.7686 17.1387 16.2842C17.3965 16.7998 17.7568 17.1924 18.2197 17.4619C18.6826 17.7256 19.2188 17.8574 19.8281 17.8574C20.2207 17.8574 20.5781 17.8018 20.9004 17.6904C21.2227 17.5732 21.501 17.4004 21.7354 17.1719C21.9697 16.9375 22.1484 16.6504 22.2715 16.3105L23.7305 16.7324C23.5781 17.2246 23.3203 17.6582 22.957 18.0332C22.5996 18.4023 22.1543 18.6924 21.6211 18.9033C21.0879 19.1084 20.4902 19.2109 19.8281 19.2109ZM27.1934 19L24.2051 9.17383H25.7871L27.9141 16.6973H28.0195L30.1113 9.17383H31.7285L33.7852 16.6797H33.8906L36.0176 9.17383H37.5996L34.6113 19H33.1348L30.9727 11.459H30.832L28.6699 19H27.1934ZM46.9512 19.2109C46.0664 19.2109 45.29 19 44.6221 18.5781C43.9541 18.1562 43.4326 17.5645 43.0576 16.8027C42.6885 16.041 42.5039 15.1562 42.5039 14.1484C42.5039 13.123 42.6885 12.2295 43.0576 11.4678C43.4326 10.7002 43.9541 10.1055 44.6221 9.68359C45.29 9.26172 46.0664 9.05078 46.9512 9.05078C47.8418 9.05078 48.6211 9.26172 49.2891 9.68359C49.957 10.1055 50.4785 10.7002 50.8535 11.4678C51.2285 12.2295 51.416 13.123 51.416 14.1484C51.416 15.1562 51.2285 16.041 50.8535 16.8027C50.4785 17.5645 49.957 18.1562 49.2891 18.5781C48.6211 19 47.8418 19.2109 46.9512 19.2109ZM46.9512 17.8574C47.6309 17.8574 48.1875 17.6846 48.6211 17.3389C49.0547 16.9932 49.377 16.5391 49.5879 15.9766C49.7988 15.4082 49.9043 14.7988 49.9043 14.1484C49.9043 13.4863 49.7988 12.8711 49.5879 12.3027C49.377 11.7344 49.0547 11.2773 48.6211 10.9316C48.1875 10.5801 47.6309 10.4043 46.9512 10.4043C46.2832 10.4043 45.7324 10.5801 45.2988 10.9316C44.8652 11.2773 44.543 11.7344 44.332 12.3027C44.1211 12.8711 44.0156 13.4863 44.0156 14.1484C44.0156 14.7988 44.1211 15.4082 44.332 15.9766C44.543 16.5391 44.8652 16.9932 45.2988 17.3389C45.7324 17.6846 46.2832 17.8574 46.9512 17.8574ZM59.0625 14.9922V9.17383H60.5566V19H59.0625V17.3301H58.957C58.7227 17.8281 58.3623 18.2529 57.876 18.6045C57.3955 18.9561 56.7832 19.1289 56.0391 19.123C55.4238 19.123 54.8789 18.9912 54.4043 18.7275C53.9297 18.458 53.5547 18.0479 53.2793 17.4971C53.0098 16.9463 52.875 16.252 52.875 15.4141V9.17383H54.3691V15.3262C54.3691 16.0352 54.5713 16.6035 54.9756 17.0312C55.3857 17.459 55.9043 17.6699 56.5312 17.6641C56.9062 17.6641 57.2871 17.5703 57.6738 17.3828C58.0664 17.1895 58.3945 16.8965 58.6582 16.5039C58.9277 16.1055 59.0625 15.6016 59.0625 14.9922ZM62.4902 19V9.17383H63.9316V10.668H64.0371C64.2188 10.1816 64.5439 9.78906 65.0127 9.49023C65.4873 9.18555 66.0176 9.0332 66.6035 9.0332C66.7148 9.0332 66.8525 9.03613 67.0166 9.04199C67.1807 9.04199 67.3066 9.04492 67.3945 9.05078V10.5801C67.3418 10.5684 67.2246 10.5508 67.043 10.5273C66.8613 10.5039 66.668 10.4922 66.4629 10.4922C65.9883 10.4922 65.5635 10.5918 65.1885 10.791C64.8135 10.9902 64.5176 11.2627 64.3008 11.6084C64.0898 11.9541 63.9844 12.3496 63.9844 12.7949V19H62.4902ZM72.7559 19V5.9043H77.1855C78.2109 5.9043 79.0488 6.08887 79.6992 6.45801C80.3555 6.82715 80.8418 7.3252 81.1582 7.95215C81.4746 8.5791 81.6328 9.2793 81.6328 10.0527C81.6328 10.8203 81.4746 11.5205 81.1582 12.1533C80.8477 12.7861 80.3643 13.29 79.708 13.665C79.0576 14.0342 78.2227 14.2188 77.2031 14.2188H74.0391V12.8125H77.1504C77.8535 12.8125 78.4189 12.6924 78.8467 12.4521C79.2744 12.2119 79.585 11.8838 79.7783 11.4678C79.9717 11.0459 80.0684 10.5742 80.0684 10.0527C80.0684 9.52539 79.9717 9.05664 79.7783 8.64648C79.585 8.23047 79.2715 7.90527 78.8379 7.6709C78.4102 7.43066 77.8418 7.31055 77.1328 7.31055H74.3379V19H72.7559ZM87.0117 19.2109C86.127 19.2109 85.3506 19 84.6826 18.5781C84.0146 18.1562 83.4932 17.5645 83.1182 16.8027C82.749 16.041 82.5645 15.1562 82.5645 14.1484C82.5645 13.123 82.749 12.2295 83.1182 11.4678C83.4932 10.7002 84.0146 10.1055 84.6826 9.68359C85.3506 9.26172 86.127 9.05078 87.0117 9.05078C87.9023 9.05078 88.6816 9.26172 89.3496 9.68359C90.0176 10.1055 90.5391 10.7002 90.9141 11.4678C91.2891 12.2295 91.4766 13.123 91.4766 14.1484C91.4766 15.1562 91.2891 16.041 90.9141 16.8027C90.5391 17.5645 90.0176 18.1562 89.3496 18.5781C88.6816 19 87.9023 19.2109 87.0117 19.2109ZM87.0117 17.8574C87.6914 17.8574 88.248 17.6846 88.6816 17.3389C89.1152 16.9932 89.4375 16.5391 89.6484 15.9766C89.8594 15.4082 89.9648 14.7988 89.9648 14.1484C89.9648 13.4863 89.8594 12.8711 89.6484 12.3027C89.4375 11.7344 89.1152 11.2773 88.6816 10.9316C88.248 10.5801 87.6914 10.4043 87.0117 10.4043C86.3438 10.4043 85.793 10.5801 85.3594 10.9316C84.9258 11.2773 84.6035 11.7344 84.3926 12.3027C84.1816 12.8711 84.0762 13.4863 84.0762 14.1484C84.0762 14.7988 84.1816 15.4082 84.3926 15.9766C84.6035 16.5391 84.9258 16.9932 85.3594 17.3389C85.793 17.6846 86.3438 17.8574 87.0117 17.8574ZM92.9355 19V9.17383H94.377V10.668H94.4824C94.6641 10.1816 94.9893 9.78906 95.458 9.49023C95.9326 9.18555 96.4629 9.0332 97.0488 9.0332C97.1602 9.0332 97.2979 9.03613 97.4619 9.04199C97.626 9.04199 97.752 9.04492 97.8398 9.05078V10.5801C97.7871 10.5684 97.6699 10.5508 97.4883 10.5273C97.3066 10.5039 97.1133 10.4922 96.9082 10.4922C96.4336 10.4922 96.0088 10.5918 95.6338 10.791C95.2588 10.9902 94.9629 11.2627 94.7461 11.6084C94.5352 11.9541 94.4297 12.3496 94.4297 12.7949V19H92.9355ZM103.658 9.17383V10.457H98.5781V9.17383H103.658ZM100.055 6.83594H101.549V16.1875C101.549 16.6973 101.654 17.0723 101.865 17.3125C102.076 17.5469 102.41 17.6641 102.867 17.6641C102.967 17.6641 103.069 17.6582 103.175 17.6465C103.286 17.6348 103.406 17.6172 103.535 17.5938L103.852 18.9473C103.711 19 103.538 19.041 103.333 19.0703C103.134 19.1055 102.932 19.123 102.727 19.123C101.936 19.123 101.291 18.8887 100.793 18.4199C100.301 17.9512 100.055 17.3418 100.055 16.5918V6.83594ZM109.459 9.17383V10.457H104.168V9.17383H109.459ZM105.75 19V7.82031C105.75 7.25781 105.882 6.78906 106.146 6.41406C106.415 6.03906 106.761 5.75781 107.183 5.57031C107.604 5.38281 108.047 5.28906 108.51 5.28906C108.885 5.28906 109.189 5.32129 109.424 5.38574C109.664 5.44434 109.84 5.5 109.951 5.55273L109.512 6.85352C109.436 6.82422 109.33 6.79199 109.195 6.75684C109.066 6.71582 108.891 6.69531 108.668 6.69531C108.17 6.69531 107.807 6.82422 107.578 7.08203C107.355 7.33398 107.244 7.70313 107.244 8.18945V19H105.75ZM114.311 19.2109C113.426 19.2109 112.649 19 111.981 18.5781C111.313 18.1562 110.792 17.5645 110.417 16.8027C110.048 16.041 109.863 15.1562 109.863 14.1484C109.863 13.123 110.048 12.2295 110.417 11.4678C110.792 10.7002 111.313 10.1055 111.981 9.68359C112.649 9.26172 113.426 9.05078 114.311 9.05078C115.201 9.05078 115.98 9.26172 116.648 9.68359C117.316 10.1055 117.838 10.7002 118.213 11.4678C118.588 12.2295 118.775 13.123 118.775 14.1484C118.775 15.1562 118.588 16.041 118.213 16.8027C117.838 17.5645 117.316 18.1562 116.648 18.5781C115.98 19 115.201 19.2109 114.311 19.2109ZM114.311 17.8574C114.99 17.8574 115.547 17.6846 115.98 17.3389C116.414 16.9932 116.736 16.5391 116.947 15.9766C117.158 15.4082 117.264 14.7988 117.264 14.1484C117.264 13.4863 117.158 12.8711 116.947 12.3027C116.736 11.7344 116.414 11.2773 115.98 10.9316C115.547 10.5801 114.99 10.4043 114.311 10.4043C113.643 10.4043 113.092 10.5801 112.658 10.9316C112.225 11.2773 111.902 11.7344 111.691 12.3027C111.48 12.8711 111.375 13.4863 111.375 14.1484C111.375 14.7988 111.48 15.4082 111.691 15.9766C111.902 16.5391 112.225 16.9932 112.658 17.3389C113.092 17.6846 113.643 17.8574 114.311 17.8574ZM121.729 5.9043V19H120.234V5.9043H121.729ZM123.662 19V9.17383H125.156V19H123.662ZM124.418 7.53906C124.125 7.53906 123.873 7.43945 123.662 7.24023C123.451 7.04102 123.346 6.80078 123.346 6.51953C123.346 6.23828 123.451 5.99805 123.662 5.79883C123.873 5.59961 124.125 5.5 124.418 5.5C124.711 5.5 124.963 5.59961 125.174 5.79883C125.385 5.99805 125.49 6.23828 125.49 6.51953C125.49 6.80078 125.385 7.04102 125.174 7.24023C124.963 7.43945 124.711 7.53906 124.418 7.53906ZM131.062 19.2109C130.178 19.2109 129.401 19 128.733 18.5781C128.065 18.1562 127.544 17.5645 127.169 16.8027C126.8 16.041 126.615 15.1562 126.615 14.1484C126.615 13.123 126.8 12.2295 127.169 11.4678C127.544 10.7002 128.065 10.1055 128.733 9.68359C129.401 9.26172 130.178 9.05078 131.062 9.05078C131.953 9.05078 132.732 9.26172 133.4 9.68359C134.068 10.1055 134.59 10.7002 134.965 11.4678C135.34 12.2295 135.527 13.123 135.527 14.1484C135.527 15.1562 135.34 16.041 134.965 16.8027C134.59 17.5645 134.068 18.1562 133.4 18.5781C132.732 19 131.953 19.2109 131.062 19.2109ZM131.062 17.8574C131.742 17.8574 132.299 17.6846 132.732 17.3389C133.166 16.9932 133.488 16.5391 133.699 15.9766C133.91 15.4082 134.016 14.7988 134.016 14.1484C134.016 13.4863 133.91 12.8711 133.699 12.3027C133.488 11.7344 133.166 11.2773 132.732 10.9316C132.299 10.5801 131.742 10.4043 131.062 10.4043C130.395 10.4043 129.844 10.5801 129.41 10.9316C128.977 11.2773 128.654 11.7344 128.443 12.3027C128.232 12.8711 128.127 13.4863 128.127 14.1484C128.127 14.7988 128.232 15.4082 128.443 15.9766C128.654 16.5391 128.977 16.9932 129.41 17.3389C129.844 17.6846 130.395 17.8574 131.062 17.8574Z" fill="#212529"/>
<path d="M154.264 19L153.279 18.0332L157.322 13.9727H146.828V12.5664H157.322L153.279 8.52344L154.264 7.53906L159.977 13.2695L154.264 19Z" fill="#212529"/>
</svg>
