<svg width="113" height="34" viewBox="0 0 113 34" fill="none" xmlns="http://www.w3.org/2000/svg">
<mask id="path-1-inside-1_20_2697" fill="white">
<path d="M0 0.5H113V33.5H0V0.5Z"/>
</mask>
<path d="M113 32H0V35H113V32Z" fill="#F4F4F4" mask="url(#path-1-inside-1_20_2697)"/>
<path d="M1.16016 19.5V6.4043H2.74219V18.0938H8.8418V19.5H1.16016ZM14.3613 19.7109C13.418 19.7109 12.6006 19.5 11.9092 19.0781C11.2236 18.6562 10.6963 18.0674 10.3271 17.3115C9.95801 16.5498 9.77344 15.668 9.77344 14.666C9.77344 13.6582 9.95508 12.7705 10.3184 12.0029C10.6816 11.2354 11.1914 10.6348 11.8477 10.2012C12.5098 9.76758 13.2832 9.55078 14.168 9.55078C14.6777 9.55078 15.1846 9.63574 15.6885 9.80566C16.1924 9.97559 16.6494 10.251 17.0596 10.6318C17.4756 11.0127 17.8066 11.5166 18.0527 12.1436C18.2988 12.7705 18.4219 13.541 18.4219 14.4551V15.1055H10.8457V13.8047H17.6045L16.9102 14.2969C16.9102 13.6406 16.8076 13.0576 16.6025 12.5479C16.3975 12.0381 16.0898 11.6367 15.6797 11.3438C15.2754 11.0508 14.7715 10.9043 14.168 10.9043C13.5645 10.9043 13.0459 11.0537 12.6123 11.3525C12.1846 11.6455 11.8564 12.0293 11.6279 12.5039C11.3994 12.9785 11.2852 13.4883 11.2852 14.0332V14.8945C11.2852 15.6387 11.4141 16.2686 11.6719 16.7842C11.9297 17.2998 12.29 17.6924 12.7529 17.9619C13.2158 18.2256 13.752 18.3574 14.3613 18.3574C14.7539 18.3574 15.1113 18.3018 15.4336 18.1904C15.7559 18.0732 16.0342 17.9004 16.2686 17.6719C16.5029 17.4375 16.6816 17.1504 16.8047 16.8105L18.2637 17.2324C18.1113 17.7246 17.8535 18.1582 17.4902 18.5332C17.1328 18.9023 16.6875 19.1924 16.1543 19.4033C15.6211 19.6084 15.0234 19.7109 14.3613 19.7109ZM22.7285 19.7285C22.1074 19.7285 21.542 19.6113 21.0322 19.377C20.5225 19.1367 20.1182 18.791 19.8193 18.3398C19.5205 17.8887 19.3711 17.3438 19.3711 16.7051C19.3711 16.1426 19.4824 15.6885 19.7051 15.3428C19.9277 14.9912 20.2236 14.7158 20.5928 14.5166C20.9678 14.3115 21.3779 14.1592 21.8232 14.0596C22.2744 13.96 22.7285 13.8809 23.1855 13.8223C23.7832 13.7461 24.2666 13.6875 24.6357 13.6465C25.0107 13.6055 25.2832 13.5352 25.4531 13.4355C25.6289 13.3359 25.7168 13.166 25.7168 12.9258V12.873C25.7168 12.2461 25.5439 11.7598 25.1982 11.4141C24.8584 11.0625 24.3398 10.8867 23.6426 10.8867C22.9277 10.8867 22.3652 11.0449 21.9551 11.3613C21.5449 11.6719 21.2578 12.0059 21.0938 12.3633L19.6523 11.8535C19.9102 11.2559 20.2529 10.79 20.6807 10.4561C21.1143 10.1221 21.583 9.8877 22.0869 9.75293C22.5967 9.61816 23.0977 9.55078 23.5898 9.55078C23.9062 9.55078 24.2695 9.58887 24.6797 9.66504C25.0898 9.73535 25.4883 9.8877 25.875 10.1221C26.2676 10.3506 26.5898 10.6992 26.8418 11.168C27.0996 11.6309 27.2285 12.252 27.2285 13.0312V19.5H25.7168V18.1641H25.6465C25.5469 18.375 25.377 18.6035 25.1367 18.8496C24.8965 19.0898 24.5771 19.2979 24.1787 19.4736C23.7861 19.6436 23.3027 19.7285 22.7285 19.7285ZM22.957 18.375C23.5547 18.375 24.0586 18.2578 24.4688 18.0234C24.8789 17.7891 25.1895 17.4873 25.4004 17.1182C25.6113 16.7432 25.7168 16.3535 25.7168 15.9492V14.5605C25.6523 14.6367 25.5117 14.707 25.2949 14.7715C25.084 14.8301 24.8379 14.8828 24.5566 14.9297C24.2812 14.9766 24.0117 15.0176 23.748 15.0527C23.4844 15.082 23.2734 15.1055 23.1152 15.123C22.7227 15.1758 22.3564 15.2607 22.0166 15.3779C21.6768 15.4893 21.4014 15.6562 21.1904 15.8789C20.9854 16.1016 20.8828 16.4062 20.8828 16.793C20.8828 17.3145 21.0762 17.71 21.4629 17.9795C21.8555 18.2432 22.3535 18.375 22.957 18.375ZM29.1621 19.5V9.67383H30.6035V11.168H30.709C30.8906 10.6816 31.2158 10.2891 31.6846 9.99023C32.1592 9.68555 32.6895 9.5332 33.2754 9.5332C33.3867 9.5332 33.5244 9.53613 33.6885 9.54199C33.8525 9.54199 33.9785 9.54492 34.0664 9.55078V11.0801C34.0137 11.0684 33.8965 11.0508 33.7148 11.0273C33.5332 11.0039 33.3398 10.9922 33.1348 10.9922C32.6602 10.9922 32.2354 11.0918 31.8604 11.291C31.4854 11.4902 31.1895 11.7627 30.9727 12.1084C30.7617 12.4541 30.6562 12.8496 30.6562 13.2949V19.5H29.1621ZM36.5098 13.5938V19.5H35.0156V9.67383H36.457V11.2207H36.5977C36.8262 10.7168 37.1748 10.3125 37.6436 10.0078C38.1123 9.70312 38.7188 9.55078 39.4629 9.55078C40.125 9.55078 40.7051 9.68555 41.2031 9.95508C41.7012 10.2246 42.0879 10.6348 42.3633 11.1855C42.6445 11.7305 42.7852 12.4219 42.7852 13.2598V19.5H41.291V13.3652C41.291 12.5977 41.0889 11.9971 40.6846 11.5635C40.2803 11.124 39.7295 10.9043 39.0322 10.9043C38.5518 10.9043 38.1211 11.0098 37.7402 11.2207C37.3594 11.4316 37.0576 11.7363 36.835 12.1348C36.6182 12.5332 36.5098 13.0195 36.5098 13.5938ZM48.9375 19.5V9.67383H50.3789V11.2207H50.5195C50.7246 10.6934 51.0557 10.2832 51.5127 9.99023C51.9697 9.69727 52.5176 9.55078 53.1562 9.55078C53.8008 9.55078 54.3369 9.69727 54.7646 9.99023C55.1982 10.2832 55.5352 10.6934 55.7754 11.2207H55.8809C56.1387 10.7109 56.5166 10.3066 57.0146 10.0078C57.5186 9.70312 58.1191 9.55078 58.8164 9.55078C59.6953 9.55078 60.416 9.82617 60.9785 10.377C61.541 10.9219 61.8223 11.7715 61.8223 12.9258V19.5H60.3105V12.9258C60.3105 12.1992 60.1113 11.6807 59.7129 11.3701C59.3145 11.0596 58.8457 10.9043 58.3066 10.9043C57.6211 10.9043 57.0879 11.1152 56.707 11.5371C56.332 11.9531 56.1445 12.4746 56.1445 13.1016V19.5H54.5977V12.7676C54.5977 12.2109 54.4189 11.7627 54.0615 11.4229C53.7041 11.0771 53.2383 10.9043 52.6641 10.9043C52.2715 10.9043 51.9053 11.0098 51.5654 11.2207C51.2256 11.4316 50.9502 11.7217 50.7393 12.0908C50.5342 12.46 50.4316 12.8848 50.4316 13.3652V19.5H48.9375ZM67.7285 19.7109C66.8438 19.7109 66.0674 19.5 65.3994 19.0781C64.7314 18.6562 64.21 18.0645 63.835 17.3027C63.4658 16.541 63.2812 15.6562 63.2812 14.6484C63.2812 13.623 63.4658 12.7295 63.835 11.9678C64.21 11.2002 64.7314 10.6055 65.3994 10.1836C66.0674 9.76172 66.8438 9.55078 67.7285 9.55078C68.6191 9.55078 69.3984 9.76172 70.0664 10.1836C70.7344 10.6055 71.2559 11.2002 71.6309 11.9678C72.0059 12.7295 72.1934 13.623 72.1934 14.6484C72.1934 15.6562 72.0059 16.541 71.6309 17.3027C71.2559 18.0645 70.7344 18.6562 70.0664 19.0781C69.3984 19.5 68.6191 19.7109 67.7285 19.7109ZM67.7285 18.3574C68.4082 18.3574 68.9648 18.1846 69.3984 17.8389C69.832 17.4932 70.1543 17.0391 70.3652 16.4766C70.5762 15.9082 70.6816 15.2988 70.6816 14.6484C70.6816 13.9863 70.5762 13.3711 70.3652 12.8027C70.1543 12.2344 69.832 11.7773 69.3984 11.4316C68.9648 11.0801 68.4082 10.9043 67.7285 10.9043C67.0605 10.9043 66.5098 11.0801 66.0762 11.4316C65.6426 11.7773 65.3203 12.2344 65.1094 12.8027C64.8984 13.3711 64.793 13.9863 64.793 14.6484C64.793 15.2988 64.8984 15.9082 65.1094 16.4766C65.3203 17.0391 65.6426 17.4932 66.0762 17.8389C66.5098 18.1846 67.0605 18.3574 67.7285 18.3574ZM73.6523 19.5V9.67383H75.0938V11.168H75.1992C75.3809 10.6816 75.7061 10.2891 76.1748 9.99023C76.6494 9.68555 77.1797 9.5332 77.7656 9.5332C77.877 9.5332 78.0146 9.53613 78.1787 9.54199C78.3428 9.54199 78.4688 9.54492 78.5566 9.55078V11.0801C78.5039 11.0684 78.3867 11.0508 78.2051 11.0273C78.0234 11.0039 77.8301 10.9922 77.625 10.9922C77.1504 10.9922 76.7256 11.0918 76.3506 11.291C75.9756 11.4902 75.6797 11.7627 75.4629 12.1084C75.252 12.4541 75.1465 12.8496 75.1465 13.2949V19.5H73.6523ZM83.3203 19.7109C82.377 19.7109 81.5596 19.5 80.8682 19.0781C80.1826 18.6562 79.6553 18.0674 79.2861 17.3115C78.917 16.5498 78.7324 15.668 78.7324 14.666C78.7324 13.6582 78.9141 12.7705 79.2773 12.0029C79.6406 11.2354 80.1504 10.6348 80.8066 10.2012C81.4688 9.76758 82.2422 9.55078 83.127 9.55078C83.6367 9.55078 84.1436 9.63574 84.6475 9.80566C85.1514 9.97559 85.6084 10.251 86.0186 10.6318C86.4346 11.0127 86.7656 11.5166 87.0117 12.1436C87.2578 12.7705 87.3809 13.541 87.3809 14.4551V15.1055H79.8047V13.8047H86.5635L85.8691 14.2969C85.8691 13.6406 85.7666 13.0576 85.5615 12.5479C85.3564 12.0381 85.0488 11.6367 84.6387 11.3438C84.2344 11.0508 83.7305 10.9043 83.127 10.9043C82.5234 10.9043 82.0049 11.0537 81.5713 11.3525C81.1436 11.6455 80.8154 12.0293 80.5869 12.5039C80.3584 12.9785 80.2441 13.4883 80.2441 14.0332V14.8945C80.2441 15.6387 80.373 16.2686 80.6309 16.7842C80.8887 17.2998 81.249 17.6924 81.7119 17.9619C82.1748 18.2256 82.7109 18.3574 83.3203 18.3574C83.7129 18.3574 84.0703 18.3018 84.3926 18.1904C84.7148 18.0732 84.9932 17.9004 85.2275 17.6719C85.4619 17.4375 85.6406 17.1504 85.7637 16.8105L87.2227 17.2324C87.0703 17.7246 86.8125 18.1582 86.4492 18.5332C86.0918 18.9023 85.6465 19.1924 85.1133 19.4033C84.5801 19.6084 83.9824 19.7109 83.3203 19.7109Z" fill="#212529"/>
<path d="M105.264 19.5L104.279 18.5332L108.322 14.4727H97.8281V13.0664H108.322L104.279 9.02344L105.264 8.03906L110.977 13.7695L105.264 19.5Z" fill="#212529"/>
</svg>
